<svg width="128" height="128" viewBox="0 0 128 128" xmlns="http://www.w3.org/2000/svg"><mask id="satori_om-id"><rect x="0" y="0" width="128" height="128" fill="#fff"/></mask><rect x="0" y="0" width="128" height="128" fill="#c4c4c4"/><path fill="#ffffff" d="M50 75.4L50 75.4Q61 75.1 68.4 68.9L68.4 68.9L68.4 68.9L68.4 68.9Q75.8 62.8 76 53.4L76 53.4Q75.8 44 68.4 37.9L68.4 37.9Q61 31.6 50 31.4L50 31.4Q39 31.6 31.6 37.9L31.6 37.9Q24.3 44 24 53.4L24 53.4Q24.1 60.8 29 66.3L29 66.3Q28.3 68.1 27.1 69.4L27.1 69.4Q26.3 70.5 25.5 71.1L25.5 71.1Q25.1 71.5 25 71.6L25 71.6Q24.9 71.8 24.9 71.8L24.9 71.8L24.8 71.8L24.8 71.8Q24.8 71.8 24.8 71.8L24.8 71.8Q24.8 71.8 24.8 71.8L24.8 71.8Q23.8 72.6 24.1 74L24.1 74Q24.6 75.3 26 75.4L26 75.4Q30.3 75.3 33.8 73.9L33.8 73.9Q35.5 73.1 36.9 72.4L36.9 72.4Q42.8 75.3 50 75.4L50 75.4ZM80 53.4L80 53.4Q79.6 64.1 72 71.1L72 71.1L72 71.1L72 71.1Q64.3 78.1 53 79.3L53 79.3Q55.4 86.4 62.1 90.8L62.1 90.8Q68.9 95.3 78 95.4L78 95.4Q85.3 95.3 91.1 92.4L91.1 92.4Q92.5 93.1 94.3 93.9L94.3 93.9Q97.8 95.3 102 95.4L102 95.4Q103.4 95.3 103.9 94L103.9 94Q104.3 92.6 103.1 91.8L103.1 91.8Q103.1 91.8 103.1 91.8L103.1 91.8Q103.1 91.8 103.1 91.8L103.1 91.8Q103.1 91.8 103.1 91.8L103.1 91.8Q103.1 91.8 103.1 91.8L103.1 91.8L103.1 91.8L103.1 91.8Q103.1 91.8 103.1 91.6L103.1 91.6Q103 91.6 103 91.6L103 91.6Q102.9 91.5 102.5 91.1L102.5 91.1Q101.8 90.5 100.9 89.4L100.9 89.4Q99.8 88 99 86.3L99 86.3Q103.9 80.8 104 73.4L104 73.4Q103.8 64.5 97 58.4L97 58.4Q90.3 52.3 79.9 51.4L79.9 51.4Q80 52.4 80 53.4L80 53.4Z "/></svg>