<svg width="128" height="128" viewBox="0 0 128 128" xmlns="http://www.w3.org/2000/svg"><mask id="satori_om-id"><rect x="0" y="0" width="128" height="128" fill="#fff"/></mask><rect x="0" y="0" width="128" height="128" fill="#bd0f0f"/><path fill="#ffffff" d="M71.9 32.5L71.9 32.5Q70.6 31.4 69 31.4L69 31.4L69 31.4L69 31.4Q67.4 31.4 66.1 32.5L66.1 32.5L51.1 47.5L51.1 47.5Q50 48.8 50 50.4L50 50.4Q50 52 51.1 53.3L51.1 53.3L53.1 55.3L53.1 55.3Q54.4 56.4 56 56.4L56 56.4Q57.6 56.4 58.9 55.3L58.9 55.3L59.4 54.8L59.4 54.8L72.6 68L72.6 68L72.1 68.5L72.1 68.5Q71 69.8 71 71.4L71 71.4Q71 73 72.1 74.3L72.1 74.3L74.1 76.3L74.1 76.3Q75.4 77.4 77 77.4L77 77.4Q78.6 77.4 79.9 76.3L79.9 76.3L94.9 61.3L94.9 61.3Q96 60 96 58.4L96 58.4Q96 56.8 94.9 55.5L94.9 55.5L92.9 53.5L92.9 53.5Q91.6 52.4 90 52.4L90 52.4Q88.4 52.4 87.1 53.5L87.1 53.5L86.6 54L86.6 54L73.4 40.8L73.4 40.8L73.9 40.3L73.9 40.3Q75 39 75 37.4L75 37.4Q75 35.8 73.9 34.5L73.9 34.5L71.9 32.5ZM52.9 68.5L52.9 68.5Q51.6 67.4 50 67.4L50 67.4L50 67.4L50 67.4Q48.4 67.4 47.1 68.5L47.1 68.5L33.1 82.5L33.1 82.5Q32 83.8 32 85.4L32 85.4Q32 87 33.1 88.3L33.1 88.3L39.1 94.3L39.1 94.3Q40.4 95.4 42 95.4L42 95.4Q43.6 95.4 44.9 94.3L44.9 94.3L58.9 80.3L58.9 80.3Q60 79 60 77.4L60 77.4Q60 75.8 58.9 74.5L58.9 74.5L58.6 74.4L58.6 74.4L66 67L66 67L60.4 61.4L60.4 61.4L53 68.8L53 68.8L52.9 68.5Z "/></svg>