<svg width="128" height="128" viewBox="0 0 128 128" xmlns="http://www.w3.org/2000/svg"><mask id="satori_om-id"><rect x="0" y="0" width="128" height="128" fill="#fff"/></mask><rect x="0" y="0" width="128" height="128" fill="#630fff"/><path fill="#ffffff" d="M62.4 31.8L62.4 31.8L34.4 43.8L62.4 31.8L34.4 43.8Q31.6 45.1 32.1 48.1L32.1 48.1Q32.9 51.1 36 51.4L36 51.4L36 52.4L36 52.4Q36.3 55.1 39 55.4L39 55.4L89 55.4L89 55.4Q91.8 55.1 92 52.4L92 52.4L92 51.4L92 51.4Q95.1 51.1 95.9 48.1L95.9 48.1Q96.4 45.1 93.6 43.8L93.6 43.8L65.6 31.8L65.6 31.8Q64 31 62.4 31.8L62.4 31.8ZM48 59.4L48 59.4L40 59.4L48 59.4L40 59.4L40 83.9L40 83.9Q39.9 84 39.8 84L39.8 84L33.8 88L33.8 88Q31.5 89.8 32.1 92.5L32.1 92.5Q33.1 95.3 36 95.4L36 95.4L92 95.4L92 95.4Q94.9 95.3 95.9 92.5L95.9 92.5Q96.5 89.8 94.3 88L94.3 88L88.3 84L88.3 84Q88.1 84 88.1 84L88.1 84Q88 84 88 83.9L88 83.9L88 59.4L88 59.4L80 59.4L80 59.4L80 83.4L80 83.4L75 83.4L75 83.4L75 59.4L75 59.4L67 59.4L67 59.4L67 83.4L67 83.4L61 83.4L61 83.4L61 59.4L61 59.4L53 59.4L53 59.4L53 83.4L53 83.4L48 83.4L48 83.4L48 59.4ZM64 39.4L64 39.4Q65.8 39.4 66.9 40.5L66.9 40.5L66.9 40.5L66.9 40.5Q68 41.6 68 43.4L68 43.4Q68 45.1 66.9 46.3L66.9 46.3Q65.8 47.4 64 47.4L64 47.4Q62.3 47.4 61.1 46.3L61.1 46.3Q60 45.1 60 43.4L60 43.4Q60 41.6 61.1 40.5L61.1 40.5Q62.3 39.4 64 39.4L64 39.4Z "/></svg>