<svg width="128" height="128" viewBox="0 0 128 128" xmlns="http://www.w3.org/2000/svg"><mask id="satori_om-id"><rect x="0" y="0" width="128" height="128" fill="#fff"/></mask><rect x="0" y="0" width="128" height="128" fill="#59b3d0"/><path fill="#ffffff" d="M35 70.6L35 70.6Q36.9 66.9 34.1 63.6L34.1 63.6Q30 59.4 30 54L30 54Q30.1 47.8 35.5 43L35.5 43Q40.9 38.3 50 38L50 38Q59.1 38.3 64.5 43L64.5 43Q69.9 47.8 70 54L70 54Q69.9 60.3 64.5 65L64.5 65Q59.1 69.8 50 70L50 70Q47.5 70 45.3 69.5L45.3 69.5Q43.3 69.1 41.5 70.1L41.5 70.1Q40.6 70.5 39.9 70.9L39.9 70.9Q36.9 72.3 33.6 73.1L33.6 73.1Q34.1 72.3 34.6 71.4L34.6 71.4Q34.9 71 35 70.6L35 70.6ZM50 76L50 76Q61 75.8 68.4 69.5L68.4 69.5L68.4 69.5L68.4 69.5Q75.8 63.4 76 54L76 54Q75.8 44.6 68.4 38.5L68.4 38.5Q61 32.3 50 32L50 32Q39 32.3 31.6 38.5L31.6 38.5Q24.3 44.6 24 54L24 54Q24.1 62 29.8 67.8L29.8 67.8Q29.5 68.1 29.4 68.4L29.4 68.4Q27.5 72 24.9 75L24.9 75Q23.5 76.4 24.3 78.1L24.3 78.1Q25.1 79.9 27 80L27 80Q35.3 79.6 42.4 76.3L42.4 76.3Q43.3 75.9 44.1 75.5L44.1 75.5Q47 76 50 76L50 76ZM78 92L78 92Q81 92 83.9 91.5L83.9 91.5Q84.8 91.9 85.6 92.3L85.6 92.3Q92.8 95.6 101 96L101 96Q102.9 95.9 103.8 94.3L103.8 94.3Q104.4 92.4 103.1 91L103.1 91Q100.5 88 98.6 84.5L98.6 84.5Q98.5 84.3 98.4 84.1L98.4 84.1Q98.4 84 98.3 83.8L98.3 83.8Q103.9 78 104 70L104 70Q103.8 60.9 96.8 54.8L96.8 54.8Q89.9 48.6 79.3 48L79.3 48Q80 50.9 80 54L80 54L80 54.1L80 54.1Q88.3 54.9 93.1 59.5L93.1 59.5Q97.9 64.1 98 70L98 70Q98 75.4 93.9 79.6L93.9 79.6Q91.1 82.9 93 86.6L93 86.6Q93.1 87 93.4 87.4L93.4 87.4Q93.8 88 94.1 88.6L94.1 88.6Q94.3 88.9 94.4 89.1L94.4 89.1Q91.1 88.3 88.1 86.9L88.1 86.9Q87.4 86.5 86.5 86.1L86.5 86.1Q84.8 85.1 82.8 85.5L82.8 85.5Q80.4 86 78 86L78 86Q72.1 85.9 67.8 83.8L67.8 83.8Q63.4 81.6 60.9 78.3L60.9 78.3Q57.9 79.3 54.6 79.6L54.6 79.6Q57.9 85.3 64.1 88.6L64.1 88.6Q70.3 91.9 78 92L78 92Z "/></svg>