<svg width="128" height="128" viewBox="0 0 128 128" xmlns="http://www.w3.org/2000/svg"><mask id="satori_om-id"><rect x="0" y="0" width="128" height="128" fill="#fff"/></mask><rect x="0" y="0" width="128" height="128" fill="#a0dc56"/><path fill="#ffffff" d="M40 39.4L40 39.4Q40 37.6 38.9 36.5L38.9 36.5L38.9 36.5L38.9 36.5Q37.8 35.4 36 35.4L36 35.4Q34.3 35.4 33.1 36.5L33.1 36.5Q32 37.6 32 39.4L32 39.4L32 81.4L32 81.4Q32.1 85.6 34.9 88.5L34.9 88.5Q37.8 91.3 42 91.4L42 91.4L92 91.4L92 91.4Q93.8 91.4 94.9 90.3L94.9 90.3Q96 89.1 96 87.4L96 87.4Q96 85.6 94.9 84.5L94.9 84.5Q93.8 83.4 92 83.4L92 83.4L42 83.4L42 83.4Q40.1 83.3 40 81.4L40 81.4L40 39.4ZM90.9 50.3L90.9 50.3Q92 49 92 47.4L92 47.4L92 47.4L92 47.4Q92 45.8 90.9 44.5L90.9 44.5Q89.6 43.4 88 43.4L88 43.4Q86.4 43.4 85.1 44.5L85.1 44.5L72 57.8L72 57.8L64.9 50.5L64.9 50.5Q63.6 49.4 62 49.4L62 49.4Q60.4 49.4 59.1 50.5L59.1 50.5L45.1 64.5L45.1 64.5Q44 65.8 44 67.4L44 67.4Q44 69 45.1 70.3L45.1 70.3Q46.4 71.4 48 71.4L48 71.4Q49.6 71.4 50.9 70.3L50.9 70.3L62 59L62 59L69.1 66.3L69.1 66.3Q70.4 67.4 72 67.4L72 67.4Q73.6 67.4 74.9 66.3L74.9 66.3L90.9 50.3Z "/></svg>