<svg width="128" height="128" viewBox="0 0 128 128" xmlns="http://www.w3.org/2000/svg"><mask id="satori_om-id"><rect x="0" y="0" width="128" height="128" fill="#fff"/></mask><rect x="0" y="0" width="128" height="128" fill="#86ba4b"/><path fill="#ffffff" d="M53 42L53 42Q50.3 42.3 50 45L50 45L50 83L50 83Q50 84.6 49.5 86L49.5 86L87 86L87 86Q89.8 85.8 90 83L90 83L90 45L90 45Q89.8 42.3 87 42L87 42L53 42ZM41 92L41 92Q37.1 91.9 34.6 89.4L34.6 89.4L34.6 89.4L34.6 89.4Q32.1 86.9 32 83L32 83L32 46L32 46Q32.3 43.3 35 43L35 43Q37.8 43.3 38 46L38 46L38 83L38 83Q38.3 85.8 41 86L41 86Q43.8 85.8 44 83L44 83L44 45L44 45Q44.1 41.1 46.6 38.6L46.6 38.6Q49.1 36.1 53 36L53 36L87 36L87 36Q90.9 36.1 93.4 38.6L93.4 38.6Q95.9 41.1 96 45L96 45L96 83L96 83Q95.9 86.9 93.4 89.4L93.4 89.4Q90.9 91.9 87 92L87 92L41 92ZM54 49L54 49Q54.3 46.3 57 46L57 46L69 46L69 46Q71.8 46.3 72 49L72 49L72 59L72 59Q71.8 61.8 69 62L69 62L57 62L57 62Q54.3 61.8 54 59L54 59L54 49ZM79 46L79 46L83 46L79 46L83 46Q85.8 46.3 86 49L86 49Q85.8 51.8 83 52L83 52L79 52L79 52Q76.3 51.8 76 49L76 49Q76.3 46.3 79 46L79 46ZM79 56L79 56L83 56L79 56L83 56Q85.8 56.3 86 59L86 59Q85.8 61.8 83 62L83 62L79 62L79 62Q76.3 61.8 76 59L76 59Q76.3 56.3 79 56L79 56ZM57 66L57 66L83 66L57 66L83 66Q85.8 66.3 86 69L86 69Q85.8 71.8 83 72L83 72L57 72L57 72Q54.3 71.8 54 69L54 69Q54.3 66.3 57 66L57 66ZM57 76L57 76L83 76L57 76L83 76Q85.8 76.3 86 79L86 79Q85.8 81.8 83 82L83 82L57 82L57 82Q54.3 81.8 54 79L54 79Q54.3 76.3 57 76L57 76Z "/></svg>