<svg width="128" height="128" viewBox="0 0 128 128" xmlns="http://www.w3.org/2000/svg"><mask id="satori_om-id"><rect x="0" y="0" width="128" height="128" fill="#fff"/></mask><rect x="0" y="0" width="128" height="128" fill="#955dfe"/><path fill="#000000" d="M64 35.4L64 35.4Q62.5 35.4 61 35.9L61 35.9L26 48.5L26 48.5Q24.1 49.4 24 51.4L24 51.4Q24.1 53.4 26 54.3L26 54.3L33.3 56.9L33.3 56.9Q30.1 61.8 30 67.9L30 67.9L30 71.4L30 71.4Q29.6 76.9 27.3 81.5L27.3 81.5Q26 83.9 24.4 86.1L24.4 86.1Q23.8 87 24.1 88L24.1 88Q24.5 89 25.5 89.4L25.5 89.4L33.5 91.4L33.5 91.4Q34.4 91.5 35.1 91.1L35.1 91.1Q35.8 90.6 36 89.8L36 89.8Q37.3 81.5 35.8 76.3L35.8 76.3Q35.1 73.5 34 71L34 71L34 67.9L34 67.9Q34.1 62.1 37.5 57.6L37.5 57.6Q39.9 54.8 43.6 53.3L43.6 53.3L63.3 45.5L63.3 45.5Q65 45 65.9 46.6L65.9 46.6Q66.4 48.4 64.8 49.3L64.8 49.3L45.1 56.9L45.1 56.9Q42.8 57.9 41.1 59.6L41.1 59.6L61 66.9L61 66.9Q62.5 67.4 64 67.4L64 67.4Q65.5 67.4 67 66.9L67 66.9L102 54.3L102 54.3Q103.9 53.4 104 51.4L104 51.4Q103.9 49.4 102 48.5L102 48.5L67 35.9L67 35.9Q65.5 35.4 64 35.4L64 35.4ZM40 82.4L40 82.4Q40.3 85.9 47 88.5L47 88.5L47 88.5L47 88.5Q53.8 91.3 64 91.4L64 91.4Q74.3 91.3 81 88.5L81 88.5Q87.8 85.9 88 82.4L88 82.4L86.1 64.3L86.1 64.3L68.4 70.6L68.4 70.6Q66.3 71.4 64 71.4L64 71.4Q61.8 71.4 59.8 70.6L59.8 70.6L41.9 64.3L41.9 64.3L40 82.4Z "/></svg>