<svg width="128" height="128" viewBox="0 0 128 128" xmlns="http://www.w3.org/2000/svg"><mask id="satori_om-id"><rect x="0" y="0" width="128" height="128" fill="#fff"/></mask><rect x="0" y="0" width="128" height="128" fill="#e95c5a"/><path fill="#ffffff" d="M54 51.4L54 51.4Q54.1 48 56.4 45.8L56.4 45.8L56.4 45.8L56.4 45.8Q58.6 43.5 62 43.4L62 43.4L66 43.4L66 43.4Q69.4 43.5 71.6 45.8L71.6 45.8Q73.9 48 74 51.4L74 51.4L74 51.9L74 51.9Q73.9 56.1 70.4 58.5L70.4 58.5L65 62L65 62Q60.1 65.3 60 71.3L60 71.3L60 71.4L60 71.4Q60 73.1 61.1 74.3L61.1 74.3Q62.3 75.4 64 75.4L64 75.4Q65.8 75.4 66.9 74.3L66.9 74.3Q68 73.1 68 71.4L68 71.4L68 71.3L68 71.3Q68 69.6 69.4 68.6L69.4 68.6L74.6 65.3L74.6 65.3Q78.1 63 80 59.5L80 59.5Q82 56 82 51.8L82 51.8L82 51.4L82 51.4Q81.9 44.6 77.4 40L77.4 40Q72.8 35.5 66 35.4L66 35.4L62 35.4L62 35.4Q55.3 35.5 50.6 40L50.6 40Q46.1 44.6 46 51.4L46 51.4Q46 53.1 47.1 54.3L47.1 54.3Q48.3 55.4 50 55.4L50 55.4Q51.8 55.4 52.9 54.3L52.9 54.3Q54 53.1 54 51.4L54 51.4ZM64 91.4L64 91.4Q66.9 91.3 68.4 88.9L68.4 88.9Q69.6 86.4 68.4 83.9L68.4 83.9Q66.9 81.5 64 81.4L64 81.4Q61.1 81.5 59.6 83.9L59.6 83.9Q58.4 86.4 59.6 88.9L59.6 88.9Q61.1 91.3 64 91.4L64 91.4Z "/></svg>